<?xml version="1.0" encoding="utf-8"?>
<svg xmlns="http://www.w3.org/2000/svg" xmlns:xlink="http://www.w3.org/1999/xlink"
		viewBox="0 0 1000 1000" enable-background="new 0 0 1000 1000" width="1000" height="1000">
	<defs>
		<mask id="maskid" maskUnits="objectBoundingBox">
			<circle cx="50" cy="50" r="75" stroke="#FFFFFF" stroke-width="50" fill="#FFFFFF" fill-opacity="0.5" />
			<circle cx="50" cy="50" r="40" stroke="#FFFFFF" stroke-width="5" fill="#FFFFFF" fill-opacity="0" />
			<circle cx="50" cy="26" r="5" stroke-width="0" fill="#FFFFFF" />
			<line x1="50" y1="35" x2="50" y2="65" stroke="#FFFFFF" stroke-width="5"/>
			<line x1="50" y1="35" x2="30" y2="35" stroke="#FFFFFF" stroke-width="5"/>
			<line x1="50" y1="35" x2="70" y2="35" stroke="#FFFFFF" stroke-width="5"/>
			<line x1="50" y1="65" x2="65" y2="80" stroke="#FFFFFF" stroke-width="5"/>
			<line x1="50" y1="65" x2="35" y2="80" stroke="#FFFFFF" stroke-width="5"/>
			<rect x="0" y="100" width="100000" height="100000" fill="#FFFFFF" />
			<rect x="100" y="0" width="100000" height="100000" fill="#FFFFFF" />
		</mask>
	</defs>
	<g>
		<circle cx="50" cy="50" r="75" stroke="#000000" stroke-width="50" fill="#FFFFFF" fill-opacity="0.5" />
		<circle cx="50" cy="50" r="40" stroke="#000000" stroke-width="5" fill="#FFFFFF" fill-opacity="0" />
		<circle cx="50" cy="26" r="5" stroke-width="0" fill="#000000" />
		<line x1="50" y1="35" x2="50" y2="65" stroke="#000000" stroke-width="5"/>
		<line x1="50" y1="35" x2="30" y2="35" stroke="#000000" stroke-width="5"/>
		<line x1="50" y1="35" x2="70" y2="35" stroke="#000000" stroke-width="5"/>
		<line x1="50" y1="65" x2="65" y2="80" stroke="#000000" stroke-width="5"/>
		<line x1="50" y1="65" x2="35" y2="80" stroke="#000000" stroke-width="5"/>
		<rect x="0" y="100" width="1000" height="1000" fill="#000000" />
		<rect x="100" y="0" width="1000" height="1000" fill="#000000" />
	</g>
</svg>
